<svg width="128" height="128" viewBox="0 0 128 128" fill="none" xmlns="http://www.w3.org/2000/svg">
<path fill-rule="evenodd" clip-rule="evenodd" d="M36.9654 35.4591C37.8424 44.6911 38.7124 53.8711 39.6024 63.2571C41.0534 60.7621 42.1034 58.3691 43.6874 56.4091C45.1624 54.5831 47.0214 52.8981 49.0444 51.7311C51.6854 50.2071 55.1484 51.6421 56.0044 54.3451C56.2344 55.0701 55.6854 56.0421 55.4934 56.9011C54.8474 56.5601 54.0144 56.3721 53.5924 55.8501C51.7994 53.6331 50.7194 53.3711 48.7364 55.2871C45.0374 58.8631 42.9574 63.3431 42.1634 68.3781C42.0104 69.3521 42.6194 70.4451 42.8764 71.4831C43.8874 71.1351 45.0614 71.0071 45.8784 70.3991C48.5344 68.4221 50.1804 65.7331 51.0884 62.5191C51.2854 61.8231 52.3534 61.3741 53.0214 60.8111C53.3414 61.4691 54.0714 62.2441 53.9184 62.7651C52.5038 67.6048 50.9915 72.4155 49.3824 77.1941C49.2204 77.6781 48.3314 77.9191 47.7784 78.2731C47.5554 77.6371 47.0864 76.9711 47.1614 76.3721C47.3294 75.0141 47.7664 73.6891 48.0714 72.4451L40.8314 75.7781C41.2364 80.4001 41.6564 85.5851 42.1544 90.7631C42.5364 94.7171 43.1834 95.7411 47.0774 96.4911C51.6214 97.3661 56.2504 97.9251 60.8694 98.2651C67.6718 98.7775 74.512 98.1338 81.0994 96.3611C83.5714 95.6971 84.5574 94.0711 84.7344 91.6441C84.8964 89.4091 85.2584 87.1881 85.5094 84.9591C86.0024 80.5681 86.4814 76.1761 86.9854 71.6011C85.3184 72.6571 84.0074 73.839 82.4744 74.34C81.3584 74.705 79.9504 74.1711 78.6714 74.0371C78.9164 72.8631 78.9014 71.5401 79.4674 70.5501C80.3894 68.9321 81.6914 67.5291 82.8314 66.0351L82.3404 65.4441C81.5234 65.9271 80.5084 66.2441 79.9274 66.9291C78.7454 68.3231 77.5884 69.8151 76.7974 71.4491C75.4734 74.1841 74.4644 77.0711 73.2794 79.8751C72.7644 81.0911 72.3204 82.9511 70.5954 82.2411C68.7504 81.4801 70.0484 79.8551 70.4814 78.6991C71.1704 76.8551 72.0804 75.0931 72.6964 73.7371C70.9504 73.9451 69.1804 74.1961 67.4024 74.3511C66.6504 74.4151 65.7564 74.0031 65.1414 74.2811C63.0964 75.2051 61.8004 74.8341 61.3754 72.5701C60.4284 73.1851 59.6264 74.0181 58.6814 74.2421C57.5344 74.5151 55.9784 74.6941 55.1384 74.1211C54.4654 73.6621 54.2204 71.9371 54.4504 70.9251C54.9074 68.9131 55.7614 66.9791 56.5724 65.0661C57.0744 63.8811 57.5794 61.9891 59.2734 62.8131C60.9474 63.6261 59.4274 64.9981 59.0414 66.0991C58.4424 67.8011 57.8324 69.5001 57.2284 71.2001L58.1884 71.7801C59.1024 70.9861 60.2414 70.3391 60.8814 69.3651C61.9294 67.7731 62.5624 65.9131 63.5544 64.2791C63.9654 63.6021 64.8504 63.2141 65.5214 62.6951C65.6574 63.5571 65.9834 64.4431 65.8754 65.2751C65.7684 66.1161 65.1774 66.8851 64.8944 67.7171C64.4694 68.9631 64.1264 70.2371 63.6944 71.6861C65.7374 71.7641 66.6124 70.9041 67.1894 69.3871C69.0154 64.5941 70.8614 59.8061 72.8684 55.0871C73.2114 54.2791 74.3774 53.8231 75.1644 53.2031C75.2554 54.1771 75.6894 55.2811 75.3804 56.1021C73.7354 60.4511 71.8884 64.7221 70.1524 69.0371C69.8594 69.7641 69.7654 70.5711 69.5804 71.3411C72.6394 69.9661 75.1924 68.4461 76.1244 65.1951C76.3524 64.4051 77.2864 63.8181 77.8954 63.1371L79.3114 64.6371C79.7414 64.2751 80.1354 63.8631 80.6024 63.5621C82.0724 62.6151 83.6554 61.7801 85.2054 63.2471C86.8094 64.7641 85.5954 66.2421 84.7574 67.5541C83.8454 68.9851 82.7284 70.2841 81.7004 71.6401C84.0124 70.1501 87.1694 69.4821 87.5894 66.2621C88.6134 58.3971 89.5134 50.5161 90.4264 42.6371C90.6974 40.3051 90.8424 37.9581 91.0534 35.5281C72.8434 39.9371 55.0244 39.9641 36.9654 35.4591V35.4591ZM44.7814 96.8281C45.6584 99.1451 46.9904 101.421 47.3394 103.839C48.0764 108.986 48.2634 114.211 48.7854 119.393C48.8614 120.148 49.3504 121.185 49.9604 121.517C58.9404 126.397 68.0074 127.243 77.1694 121.906C78.5364 121.11 78.7894 120.059 78.9664 118.581C79.8234 111.4 77.9154 103.783 82.5064 97.0211C69.6504 100.21 57.1034 100.309 44.7814 96.8281V96.8281ZM75.7724 36.7481C80.1344 36.3271 84.4434 35.3031 88.7574 34.4571C89.5704 34.2981 90.2924 33.6791 91.0564 33.2721C90.0494 32.3871 89.1784 31.9611 88.2684 31.8541C83.7384 31.3191 79.1924 30.9071 74.6654 30.3461C73.9814 30.2611 72.7604 29.4171 72.8114 29.2631C74.1324 25.2831 74.0674 20.7781 77.0654 17.4241C80.8544 13.1841 84.6824 8.98105 88.4814 4.77605C85.6554 1.73605 85.6174 1.73205 83.0564 4.39305C81.6084 5.89705 80.2854 7.54305 78.7144 8.90505C72.9014 13.9431 68.8184 19.9101 68.0224 27.7771C67.8394 29.5821 66.8484 30.2341 64.9534 30.2621C58.6974 30.3531 52.4344 30.5251 46.1924 30.9361C43.0994 31.1391 40.0444 31.9331 36.9714 32.4591L36.9434 33.6081C38.8664 34.2011 40.7524 34.9801 42.7164 35.3571C53.6604 37.4551 64.7074 37.8151 75.7724 36.7481V36.7481ZM72.2764 34.0001C69.7994 36.0001 67.7524 36.0001 65.7754 34.0001H72.2764Z" fill="#ECDBBA"/>
</svg>
