<svg width="128" height="128" viewBox="0 0 128 128" fill="none" xmlns="http://www.w3.org/2000/svg">
<path d="M65.2827 106.928C64.4547 106.741 63.6497 106.482 62.8417 106.243L62.2327 106.058C61.4444 105.816 60.6603 105.561 59.8807 105.293L59.5577 105.176C58.8624 104.93 58.171 104.674 57.4837 104.407L56.9017 104.178C56.1497 103.881 55.4017 103.571 54.6637 103.247L54.2167 103.049C53.5838 102.763 52.9541 102.47 52.3277 102.17L51.7817 101.908C51.2907 101.669 50.8047 101.415 50.3207 101.165C49.9967 100.994 49.6667 100.833 49.3457 100.655C48.7564 100.338 48.1726 100.01 47.5947 99.6729L47.0037 99.3429C46.236 98.89 45.4759 98.4243 44.7237 97.9459L44.1087 97.5359C43.5617 97.1854 43.0206 96.8257 42.4857 96.4569L41.9627 96.0899C41.4476 95.7255 40.9363 95.3558 40.4287 94.9809L39.7497 94.4669C39.2837 94.1123 38.8223 93.7516 38.3657 93.3849L37.7487 92.8899C37.1677 92.4132 36.593 91.9288 36.0247 91.4369L35.8367 91.2779C35.2245 90.7381 34.6204 90.189 34.0247 89.6309L33.5147 89.1399C33.0737 88.7199 32.6397 88.2969 32.2127 87.8629L31.7027 87.3539C31.1607 86.7992 30.6277 86.2358 30.1037 85.6639L30.0257 85.5799C29.4739 84.9754 28.9335 84.3607 28.4047 83.7359L27.9807 83.2319C27.5851 82.7567 27.1961 82.2759 26.8137 81.7899L26.3867 81.2579C25.9292 80.6664 25.4801 80.0683 25.0397 79.4639C12.8897 62.8899 8.52371 40.0319 18.2357 21.2599L9.62471 32.1809C-1.40429 48.0319 -0.0312858 68.6569 8.39371 85.5009C8.59371 85.9049 8.80471 86.3019 9.01071 86.6989L9.40571 87.4579L9.65071 87.8949L10.0897 88.6809C10.3517 89.1419 10.6197 89.6009 10.8947 90.0599L11.3527 90.8159C11.6567 91.3069 11.9677 91.7919 12.2867 92.2759L12.6847 92.8899C13.1227 93.5449 13.5727 94.1989 14.0367 94.841L14.0757 94.8909L14.3037 95.1989C14.7037 95.7519 15.1177 96.2979 15.5357 96.8379L15.9987 97.4279C16.3717 97.8969 16.7507 98.363 17.1377 98.827L17.5727 99.3469C18.0917 99.9594 18.6204 100.563 19.1587 101.159L19.1907 101.192L19.2527 101.26C19.7815 101.834 20.3189 102.401 20.8647 102.959L21.3817 103.48C21.8047 103.906 22.2347 104.325 22.6687 104.742L23.1947 105.242C23.7747 105.789 24.3607 106.325 24.9587 106.849L24.9867 106.871L25.2937 107.133C25.8197 107.589 26.3557 108.042 26.8967 108.486L27.5607 109.015C28.0017 109.369 28.4477 109.717 28.8967 110.059L29.6107 110.602C30.1057 110.967 30.6057 111.326 31.1097 111.677L31.6557 112.064L31.8057 112.171C32.2837 112.5 32.7727 112.817 33.2617 113.134L33.8917 113.554C34.6407 114.028 35.4017 114.497 36.1697 114.95L36.7997 115.305C37.3658 115.632 37.9362 115.952 38.5107 116.264C38.8227 116.432 39.1427 116.591 39.4567 116.752C39.8637 116.965 40.2677 117.181 40.6817 117.388L40.9647 117.525L41.4657 117.767C42.1067 118.073 42.7527 118.374 43.4057 118.664L43.8157 118.848C44.5642 119.175 45.3187 119.489 46.0787 119.789L46.6297 120.006C47.3337 120.277 48.0477 120.545 48.7647 120.797L49.0327 120.89C49.8187 121.165 50.6137 121.42 51.4137 121.669L51.9887 121.841C52.8027 122.086 53.6067 122.379 54.4467 122.534C107.786 132.261 123.28 90.4809 123.28 90.4809C110.266 107.435 87.1677 111.907 65.2827 106.928V106.928ZM46.0687 63.6969C47.2637 65.4099 48.5887 67.4479 50.1737 68.8239C50.7537 69.4592 51.3505 70.0787 51.9637 70.6819L52.4357 71.1469C53.0315 71.7273 53.641 72.2935 54.2637 72.8449L54.3377 72.9089L54.3557 72.9269C55.0525 73.5337 55.7644 74.1229 56.4907 74.6939L56.9747 75.0719C57.705 75.6346 58.4496 76.1784 59.2077 76.7029L59.2727 76.7519C59.6087 76.9839 59.9517 77.2 60.2927 77.424L60.7747 77.7429C61.3187 78.0919 61.8707 78.4319 62.4307 78.7579L62.6647 78.8939C63.1477 79.1719 63.6377 79.4459 64.1277 79.7119L64.6487 79.9829C64.9877 80.1599 65.3267 80.3409 65.6727 80.5129L65.8277 80.5829C66.5297 80.9289 67.2387 81.2629 67.9637 81.5779L68.4357 81.7719C69.0145 82.0196 69.598 82.2563 70.1857 82.4819L70.9357 82.757C71.4687 82.955 72.0037 83.1349 72.5437 83.3159L73.2707 83.549C74.0377 83.787 74.7957 84.0879 75.5947 84.2209C116.778 91.0439 126.285 59.3349 126.285 59.3349C117.715 71.6779 101.117 77.5679 83.4057 72.9699C82.6227 72.7641 81.8449 72.5393 81.0727 72.2959L80.3727 72.0689C79.8253 71.8918 79.2812 71.7044 78.7407 71.507L78.0047 71.2329C77.4155 71.0066 76.8301 70.7706 76.2487 70.5249L75.7757 70.3249C75.0516 70.0098 74.3353 69.6767 73.6277 69.3259C73.2637 69.1489 72.9067 68.9619 72.5497 68.7779L71.9277 68.4579C71.4689 68.2093 71.0145 67.9526 70.5647 67.688L70.2387 67.5029C69.682 67.1781 69.1319 66.842 68.5887 66.4949L68.0907 66.1629C67.7321 65.9308 67.3758 65.6951 67.0217 65.4559C66.267 64.9309 65.5248 64.3881 64.7957 63.8279L64.2947 63.4329C56.5427 57.3129 50.3977 48.9469 47.4757 39.4619C44.4137 29.6259 45.0747 18.5839 50.3787 9.62195L43.8617 18.8219C35.8847 30.2999 36.3187 45.6659 42.5407 57.8049C43.5813 59.8469 44.76 61.8155 46.0687 63.6969V63.6969ZM89.4757 49.4979C89.8147 49.6229 90.1537 49.7349 90.4977 49.8519L90.9487 49.9949C91.4327 50.1469 91.9147 50.3239 92.4157 50.4189C115.155 54.8129 121.324 38.7499 122.965 36.3849C117.562 44.1639 108.483 46.0309 97.3417 43.3269C96.4617 43.1139 95.4937 42.7959 94.6457 42.4949C93.5563 42.1079 92.4879 41.6643 91.4447 41.1659C89.4653 40.2132 87.5854 39.0663 85.8327 37.7419C75.8637 30.1769 69.6707 15.7479 76.1757 3.99695L72.6557 8.84795C67.9537 15.7679 67.4917 24.3619 70.7547 32.004C74.1957 40.116 81.2467 46.4789 89.4757 49.4979V49.4979Z" fill="#ECDBBA"/>
</svg>
